<svg width="31" height="31" viewBox="0 0 31 31" fill="none" xmlns="http://www.w3.org/2000/svg">
<path d="M28.4865 22.5381C28.009 22.0968 27.3073 21.9883 26.7069 21.887C25.8749 21.7496 25.5566 21.5977 25.0719 21.1636C24.0374 20.2448 24.0374 18.9137 25.0719 17.995L27.2639 16.049C30.6206 13.0829 30.6206 8.22148 27.2639 5.25542C24.7898 3.07791 21.4692 2 18.0185 2C13.989 2 9.77866 3.46856 6.53047 6.3478C0.489845 11.6867 0.489845 20.4329 6.53047 25.7718C9.53269 28.4268 13.5839 29.7507 17.5917 29.7796H17.7147C21.7224 29.7796 25.6724 28.4847 28.4793 25.9889C29.521 25.0701 29.3466 23.3411 28.4865 22.5381Z" stroke="black" stroke-width="2.31497" stroke-miterlimit="10"/>
<path d="M7.78851 14.7323C9.06703 14.7323 10.1035 13.6959 10.1035 12.4174C10.1035 11.1388 9.06703 10.1024 7.78851 10.1024C6.50999 10.1024 5.47354 11.1388 5.47354 12.4174C5.47354 13.6959 6.50999 14.7323 7.78851 14.7323Z" fill="black"/>
<path d="M8.36724 22.1836C9.64577 22.1836 10.6822 21.1472 10.6822 19.8687C10.6822 18.5901 9.64577 17.5537 8.36724 17.5537C7.08872 17.5537 6.05228 18.5901 6.05228 19.8687C6.05228 21.1472 7.08872 22.1836 8.36724 22.1836Z" fill="black"/>
<path d="M13.5759 10.1024C14.8544 10.1024 15.8909 9.06594 15.8909 7.78742C15.8909 6.5089 14.8544 5.47245 13.5759 5.47245C12.2974 5.47245 11.261 6.5089 11.261 7.78742C11.261 9.06594 12.2974 10.1024 13.5759 10.1024Z" fill="black"/>
<path d="M15.8909 27.3923C17.8087 27.3923 19.3633 25.8376 19.3633 23.9199C19.3633 22.0021 17.8087 20.4474 15.8909 20.4474C13.9731 20.4474 12.4184 22.0021 12.4184 23.9199C12.4184 25.8376 13.9731 27.3923 15.8909 27.3923Z" fill="black"/>
<path d="M21.0996 10.1024C22.3781 10.1024 23.4145 9.06594 23.4145 7.78742C23.4145 6.5089 22.3781 5.47245 21.0996 5.47245C19.8211 5.47245 18.7846 6.5089 18.7846 7.78742C18.7846 9.06594 19.8211 10.1024 21.0996 10.1024Z" fill="black"/>
</svg>
