<svg width="32" height="32" viewBox="0 0 32 32" fill="none" xmlns="http://www.w3.org/2000/svg">
<path d="M23.5 2.5C23.894 2.10604 24.3617 1.79353 24.8764 1.58031C25.3912 1.3671 25.9428 1.25736 26.5 1.25736C27.0572 1.25736 27.6088 1.3671 28.1236 1.58031C28.6383 1.79353 29.106 2.10604 29.5 2.5C29.894 2.89397 30.2065 3.36167 30.4197 3.87641C30.6329 4.39116 30.7426 4.94285 30.7426 5.5C30.7426 6.05715 30.6329 6.60885 30.4197 7.12359C30.2065 7.63833 29.894 8.10604 29.5 8.5L9.25 28.75L1 31L3.25 22.75L23.5 2.5Z" stroke="black" stroke-width="2" stroke-linecap="round" stroke-linejoin="round"/>
</svg>
